<svg xmlns="http://www.w3.org/2000/svg" viewBox="0 0 1080 1080">
    <defs>
        <style>
            .cls-1 { fill: #000000; } /* Color negro de Flip */
            @media (prefers-color-scheme: dark) {
                .cls-1 { fill: #FFFFFF; } /* Color más claro para modo oscuro */
            }
        </style>
    </defs>
    <path class="cls-1" d="M748.89,237.28h-364.86c-10.55,0-20.67,4.19-28.13,11.65l-56.26,56.26c-7.46,7.46-11.65,17.58-11.65,28.13v444.42c0,10.55,4.19,20.67,11.65,28.13l56.26,56.26c7.46,7.46,17.58,11.65,28.13,11.65h46.64c10.55,0,20.67-4.19,28.13-11.65l67.87-67.89v-.02h142.65c10.55,0,20.67-4.19,28.13-11.65l56.26-56.27c7.46-7.46,11.65-17.58,11.65-28.13v-46.61c0-10.55-4.19-20.67-11.65-28.13l-56.26-56.26c-7.46-7.46-17.58-11.65-28.13-11.65h-102.87c-21.97,0-39.78-17.81-39.78-39.78h0c0-21.97,17.81-39.78,39.78-39.78h182.43c10.55,0,20.67-4.19,28.13-11.65l56.26-56.26c7.46-7.46,11.65-17.58,11.65-28.13v-46.61c0-10.55-4.19-20.67-11.65-28.13l-56.26-56.26c-7.46-7.46-17.58-11.65-28.13-11.65ZM725.59,396.4h-182.43c-10.55,0-20.67,4.19-28.13,11.65l-56.26,56.26c-7.46,7.46-11.65,17.58-11.65,28.13v46.61c0,10.55,4.19,20.67,11.65,28.13l56.26,56.26c7.46,7.46,17.58,11.65,28.13,11.65h102.87c21.97,0,39.78,17.81,39.78,39.78h0c0,21.97-17.81,39.78-39.78,39.78h-102.87c-10.55,0-20.67,4.19-28.14,11.66l-56.22,56.25c-7.46,7.46-17.58,11.66-28.14,11.66h-23.33c-21.97,0-39.78-17.81-39.78-39.78v-397.81c0-21.97,17.81-39.78,39.78-39.78h318.25c21.97,0,39.78,17.81,39.78,39.78h0c0,21.97-17.81,39.78-39.78,39.78Z" />
</svg>