<?xml version="1.0" encoding="UTF-8"?>
<svg id="Capa_2" data-name="Capa 2" xmlns="http://www.w3.org/2000/svg" viewBox="0 0 524.34 653.26">
  <defs>
    <style>
      .cls-1 {
        fill: #fff;
      }
    </style>
  </defs>
  <g id="Capa_1-2" data-name="Capa 1">
    <g>
      <path class="cls-1" d="M38.35,242.06c25.7-67.79,38.38-140.56,36.65-213.02-.02-7.01-.9-15.7-5.68-20.86-5.46-5.18-11.76-1.08-14.76,5.19-1.74,3.17-2.81,7.15-3.63,10.71-8.32,37.11-7.09,75.81-6.3,113.67,1.1,27.94,3.55,56.33,7.25,84.04,4.59,33.75,11.27,67.47,19.83,100.42,11.91,47.09,30.52,92.11,40.64,139.77,3.37,16,5.62,32.53,6.13,48.89.77,33.17-6.74,67.02-24.38,95.36-9.53,15.1-22.25,28.43-37.65,37.66-6.6,3.93-13.26,7.37-21.05,8.82-22.48,3.88-34.09-13.62-35.19-34.01-.63-8.47.27-16.92,1.76-25.21,4.19-24.17,10.92-48.72,23.75-69.99,13.33-22.49,33.25-38.1,58.52-44.97,19.93-5.58,40.15-7.25,60.13-10.44,5.93-.92,17.97-2.77,23.91-3.71,99.63-15.89,198.06-38.53,294.88-67.03-95.88,31.74-194.27,56.16-293.77,73.69-5.98,1.03-17.95,3.03-23.93,4.03-19.59,3.34-40.34,5.44-59.02,10.94-14.88,4.33-28.76,12.03-39.41,23.37-24.18,25.9-33.46,62.66-37.56,97.2-.74,12.93.25,31.59,14.51,36.34,10.52,2.81,20.66-3.13,29.92-8.81,26.33-17.08,42.46-46.24,49.7-76.25,6.67-26.84,5.98-55.05,1.26-82.16-8.88-51.63-29.87-100.29-42.31-151.15-8.41-33.36-14.91-67.5-19.3-101.64-3.59-28.09-5.71-56.61-6.47-84.93-.4-34.55-.83-69.22,5.34-103.41.75-4.03,1.65-8.04,2.66-12.02,1.56-6.33,3.74-12.74,8.32-17.65,7.95-8.46,19.8-5.55,24.12,5.14,2.58,5.95,3.18,12.5,3.08,18.9.42,72.91-13.92,145.83-41.96,213.1h0Z"/>
      <path class="cls-1" d="M150.06,433.08c14.11-14.78,23.29-31.09,21.3-52.05-.22-5.24-5.63-9.24-10.68-8.14-2.31.4-4.11,1.93-5.8,3.49-1.82,1.63-3.5,3.45-5.07,5.34-7.59,9.43-13.57,20.91-14.67,33.03-.29,7.07,1.74,14.34,5.69,20.16,8.5,12.82,24.26,13.84,34.99,3.17,9.46-9.95,11.08-26.42,4.49-38.41-4.02-7.48-11.68-14.3-20.39-13.5-8.46.67-15.2,8.33-17.5,16.25-4.3,14.87,2.12,40.29,15.15,49.79,11.77,8.55,24.4-.94,32.35-10.48,17.27-20.6,30.42-45.01,37.94-70.81.55-2.16.89-4.3.85-6.17.08-5.9-4.27-7.27-9.24-5.55-4,1.51-7.98,4.23-11.32,6.87-2,1.65-3.84,3.45-4.97,5.69,0,0-.91,1.63-.91,1.63-1.63,3.07-3.66,6.6-5.01,9.71-2.09,4.45-3.07,9.01-4.62,13.79-2.93,8.32-3.76,17.97-.3,26.1,4.2,10.94,17.74,15.27,27.64,9.43,8.14-4.84,15.02-11.13,19.98-19.13.54-.83,1.62-2.46,2.19-3.27,5.07-7.14,9.61-13.51,12.5-21.54,1.72-5.86,1.59-12.83-1.13-18.2-2.97-5.81-11.15-5.07-16.1-1.79-3.38,2.27-5.42,5.77-6.91,9.57-1.54,4.06-2.29,8.67-2.71,13.44-1.58,17.38-.44,39.61,18.16,46.32,18.59,5.98,28.34-20.51,35.03-33.66,8.23-17.6,13.1-36.66,10.68-56.02,0,0,9.9.24,9.9.24-3.07,18.01,1.77,35.88,4.59,53.73,0,0,.4,2.55.4,2.55.11.58.45,1.01.92,1.08.05,0-.2.02-.23.06.28-.24.95-1.1,1.23-1.77,1.24-2.62,2.36-6.15,3.22-9.12,2.86-9.98,4.72-20.8,7.82-31,.03-.09.5-1.61.54-1.75,1.95-6.04,10.46-6.4,12.94-.55.3.92,19.38,39.99,20.2,41.88,0,0-8.74-.44-8.74-.44,10.08-16.26,14.26-36.22,11.55-55.16l9.77.63c-3.08,11.48-6.58,23.29-3.14,34.77,2.4,7.19,8.28,14.06,15.91,15,7.7.74,14.04-5.19,17.32-12.14,4.77-10.51,4.46-24.35,5.84-35.96,0,0,1.72-19.07,1.72-19.07.26-4.88,1.03-10.09-2.71-13.24-3.37-2.58-8.19-.93-10.92,1.97-5.63,5.25-6.91,15.85-8.62,23.82-3.05,15.24-5.8,31.06-5.13,46.31.56,8.68,1.43,17.78,5.82,25.45,3.16,5.8,9.98,11.83,16.17,7.06,3.77-3.12,5.59-9.05,6.96-14.08,3.15-12.12,5.55-24.44,6.96-36.9,3.31-29.61,1.39-59.82-3.75-89.24-3.77-19.91-7.96-41.55-10.36-61.66-2.57-22.52-5.35-53.74-7.23-76.51,0,0,9.96.05,9.96.05-2.15,21.99-4.34,43.97-7.24,65.98-2.11,15.12-4.42,30.14-6.25,45.16-13.27,72.03-24.61,144.88-47.62,214.76-6.25,17.17-12.78,35.39-25.77,49.06-2.8,2.89-5.73,6.28-8.6,9.13-5.88,6.12-12.73,12.12-20.27,16.44-7.65,4.27-15.88,7.63-24.37,9.72-17.06,3.59-34.52,2.06-51.38-1.04-28.12-4.85-52.72-20.98-75.14-37.73-6.75-4.89-15.02-9.83-19.99-17.47-4.17-6.15-4.82-15.41.26-21.34,2.25-2.69,4.83-4.33,7.48-6.15,4.86-3.27,10.08-6.01,15.51-8.22,4.5-1.92,11.47-3.8,16.23-5.22,116-33.22,237.37-56.46,342.84-117.72,6.41-3.71,14.95-8.86,21.16-12.94,0,0,6.94-4.51,6.94-4.51-35.97,25.61-75.24,46.53-115.97,63.75-76.22,32.32-156.95,53.49-236.27,76.63-4.79,1.32-19.09,5.43-23.83,6.77-7.49,2.14-14.59,5.43-21.04,9.76-2.99,2.16-5.37,3.28-6.36,6.06-2.41,9.64,12,17.19,18.88,22.46,4.52,3.28,8.91,6.5,13.38,9.62,17.56,12.33,36.57,22.65,57.84,26.42,15.51,2.87,31.84,4.31,47.25,1.1,5.03-1.17,9.95-3.11,14.67-5.14,9.77-4.2,17.67-10.55,25.04-18.26,2.74-2.71,5.72-6.09,8.42-8.93,11.87-12.53,17.73-29.38,23.66-45.55,20.71-62.54,31.57-127.96,43.58-192.75.76-4.83,3.65-19.35,4.13-24.25,0,0,1.02-8.19,1.02-8.19,4.93-32.83,8.84-65.31,11.87-98.39.27-2.75,2.71-4.76,5.46-4.49,2.44.24,4.29,2.19,4.5,4.54,2.07,22.77,4.4,53.92,7.19,76.14,2.78,24.91,8.98,50.71,12.53,75.56,5.46,38.44,4.52,78.36-5.63,116.07-2.26,8.83-6.5,19.56-16.31,22.42-10.55,3.35-20.33-4.25-25.13-12.98-12.1-22.18-6.55-55.17-1.84-78.74,2.32-11.86,4.55-26.07,16.28-32.68,7.84-4.78,19.25-2.33,23.56,6.06,2.85,5.18,2.64,11.69,2.18,16.89-.55,6.51-2.06,22.41-2.59,28.65-1.29,17.2-3.43,37.32-21.44,45.7-15.57,7.03-31.6-5.1-36.24-19.94-4.26-13.76-.56-27.6,3.01-40.55,1.45-5.17,9-4.69,9.77.63,3.03,21.32-1.62,43.52-12.95,61.83-1.44,2.35-4.53,3.09-6.88,1.63-.84-.52-1.47-1.25-1.87-2.08,0,0-18.47-38.31-18.47-38.31,0,0-1.15-2.39-1.15-2.39,0,0-.58-1.2-.58-1.2,0,0-.14-.3-.14-.3l-.02-.04s.02.06.02.06c0,0,.06.11.06.11,1.2,2.3,4.8,1.98,5.63-.46-3.25,10.15-5.13,21.48-8.24,32.32-1.15,3.81-2.1,7.09-3.91,10.88-1.28,2.43-2.8,4.68-5.6,6.15-6.33,3.32-14.16-1.67-15.09-8.34-.22-1.32-.62-3.96-.84-5.28-1.76-10.65-4.06-20.94-4.95-31.93-.62-7.43-.4-15.01.78-22.4.41-2.73,2.96-4.6,5.68-4.19,2.3.35,4,2.22,4.22,4.42,3.48,26.4-6,52.37-18.37,75.14-5.05,9.5-11.51,20.08-22.1,24.53-11.41,5.13-25.14-.1-32.87-9.08-7.6-8.34-10.45-20.31-10.84-31.19-.13-13.94-.07-29.96,9.22-41.47,8.01-10.15,26.1-12.96,34.35-1.53,5.8,8.71,6.07,20.73,2.4,30.29-3.07,7.85-8.3,15.5-13.02,22.05-1.41,2.04-2.83,4.32-4.28,6.34-4.63,6.63-10.97,12.47-17.62,16.8-4.81,3.45-10.48,5.84-16.44,6.1-12.32.89-24.33-6.52-28.89-18.04-4.63-10.91-3.53-23.03-.04-33.07.75-2.33,1.39-4.63,2.16-7.18,1.83-6.34,5.1-12.41,8.26-18.14,0,0,.94-1.67.94-1.67,1.79-3.39,4.48-6.17,7.33-8.5,4.54-3.56,9.05-6.64,14.51-8.64,11.37-4,22.35,2.23,22.4,14.87.05,6.35-1.98,11.6-3.49,16.38-7.41,22.05-18.59,42.79-32.76,61.22-4.96,6.38-9.96,12.44-16.8,17.32-10.03,7.47-23.73,8.8-34.04.96-9.33-7.05-14.16-17.5-17.07-28.26-4.16-15.65-4.22-35.07,8.78-46.83,6.46-6.17,16.38-8.94,24.96-5.94,13.62,4.75,21.88,18.96,22.68,32.84.45,10.91-2.9,22.3-10.93,30.08-13.34,12.65-33.17,11.06-43.1-4.86-5.73-9.04-7.54-20.6-4.29-30.8,3.79-12.38,10.73-23.82,20.46-32.34,4.15-4.09,10.17-5.5,15.22-2.16,5.38,3.54,5.17,8.77,5.01,14.47-.18,18.5-10.45,33.98-23.26,46.42h0Z"/>
    </g>
  </g>
</svg>